<?xml version="1.0" standalone="no"?><!DOCTYPE svg PUBLIC "-//W3C//DTD SVG 1.1//EN" "http://www.w3.org/Graphics/SVG/1.1/DTD/svg11.dtd"><svg t="1597287586118" class="icon" viewBox="0 0 1024 1024" version="1.1" xmlns="http://www.w3.org/2000/svg" p-id="4570" xmlns:xlink="http://www.w3.org/1999/xlink" width="200" height="200"><defs><style type="text/css"></style></defs><path d="M563.095888 54.816468A358.490391 358.490391 0 0 1 870.387994 409.620582v281.79536l94.102448 95.177611a25.599142 25.599142 0 0 1 7.372553 17.663408l0.511982 40.190654a25.599142 25.599142 0 0 1-25.547944 25.95753H77.121768a25.599142 25.599142 0 0 1-25.599142-25.906332l0.511983-40.958628a25.599142 25.599142 0 0 1 7.474949-17.765804L153.612006 691.415942V409.620582a358.490391 358.490391 0 0 1 307.292106-354.804114 51.198285 51.198285 0 1 1 102.140578 0z m-50.379112 77.00222A268.432608 268.432608 0 0 0 244.23297 400.251296v317.582961l-70.244047 75.261478h680.271611l-73.213547-77.00222V400.251296a268.432608 268.432608 0 0 0-268.381409-268.432608zM512 1024a102.39657 102.39657 0 0 1-102.39657-102.39657c51.812664 0 152.570889 0.921569 204.79314 0a102.39657 102.39657 0 0 1-102.39657 102.39657z" fill="#7093FF" fill-opacity=".6" p-id="4571"></path></svg>