<?xml version="1.0" standalone="no"?><!DOCTYPE svg PUBLIC "-//W3C//DTD SVG 1.1//EN" "http://www.w3.org/Graphics/SVG/1.1/DTD/svg11.dtd"><svg t="1597127899761" class="icon" viewBox="0 0 1024 1024" version="1.1" xmlns="http://www.w3.org/2000/svg" p-id="2134" xmlns:xlink="http://www.w3.org/1999/xlink" width="200" height="200"><defs><style type="text/css"></style></defs><path d="M732.3 939H255.2c-30.1 0-54.5-24.5-54.5-54.5V420.9h65.4v452.6h455.3V421h65.4v463.5c0 30-24.4 54.5-54.5 54.5z" fill="#4A5FE2" p-id="2135"></path><path d="M699.3 247.4h-65.4v-55c0-12.9-10.5-23.4-23.4-23.4H376.9c-12.9 0-23.4 10.5-23.4 23.4V247h-65.4V142.4c0-19.3 16.2-38.9 47.2-38.9h316.8c31 0 47.2 19.5 47.2 38.9v105z" fill="#A1AFFF" p-id="2136"></path><path d="M807.3 362.3H180.2c-18 0-32.7-14.7-32.7-32.7 0-18 14.7-32.7 32.7-32.7h627.1c18 0 32.7 14.7 32.7 32.7 0 18-14.7 32.7-32.7 32.7z" fill="#4A5FE2" p-id="2137"></path><path d="M406.5 757.2c-18 0-32.7-14.7-32.7-32.7V497.3c0-18 14.7-32.7 32.7-32.7 18 0 32.7 14.7 32.7 32.7v227.2c0 18-14.7 32.7-32.7 32.7zM581 757.2c-18 0-32.7-14.7-32.7-32.7V497.3c0-18 14.7-32.7 32.7-32.7 18 0 32.7 14.7 32.7 32.7v227.2c0 18-14.7 32.7-32.7 32.7z" fill="#A1AFFF" p-id="2138"></path></svg>