<?xml version="1.0" standalone="no"?><!DOCTYPE svg PUBLIC "-//W3C//DTD SVG 1.1//EN" "http://www.w3.org/Graphics/SVG/1.1/DTD/svg11.dtd"><svg t="1597143469290" class="icon" viewBox="0 0 1024 1024" version="1.1" xmlns="http://www.w3.org/2000/svg" p-id="2297" xmlns:xlink="http://www.w3.org/1999/xlink" width="200" height="200"><defs><style type="text/css"></style></defs><path d="M621.056 559.104a272.896 272.896 0 1 0-476.16-180.736 270.848 270.848 0 0 0 70.144 181.248 445.44 445.44 0 0 0-197.632 244.736 86.528 86.528 0 0 0 12.8 74.752 113.664 113.664 0 0 0 79.872 39.424 38.4 38.4 0 0 0 0-76.8 39.424 39.424 0 0 1-23.04-8.704 17.408 17.408 0 0 1 0-10.752A369.664 369.664 0 0 1 279.04 614.4a265.216 265.216 0 0 0 278.016 0 369.152 369.152 0 0 1 187.392 209.92 17.408 17.408 0 0 1 0 10.752 39.936 39.936 0 0 1-23.04 8.704 38.4 38.4 0 0 0 0 76.8 113.664 113.664 0 0 0 79.872-39.424 86.528 86.528 0 0 0 17.92-76.8 444.416 444.416 0 0 0-198.144-245.248z m-399.36-180.736a196.608 196.608 0 1 1 196.608 196.608 196.608 196.608 0 0 1-196.608-196.608z" fill="#1F88D9" p-id="2298"></path><path d="M813.568 584.704a237.056 237.056 0 0 0-124.416-394.24 25.6 25.6 0 1 0-10.24 51.2 186.368 186.368 0 0 1 147.968 181.76 183.808 183.808 0 0 1-74.752 148.992 25.6 25.6 0 0 0 6.144 44.544s210.432 81.92 186.88 204.8a37.376 37.376 0 0 1-27.648 12.8 25.6 25.6 0 0 0 0 51.2 82.432 82.432 0 0 0 73.728-51.2c28.16-131.072-109.056-216.064-177.664-249.856z" fill="#1F88D9" p-id="2299"></path></svg>