<?xml version="1.0" standalone="no"?><!DOCTYPE svg PUBLIC "-//W3C//DTD SVG 1.1//EN" "http://www.w3.org/Graphics/SVG/1.1/DTD/svg11.dtd"><svg t="1597199930354" class="icon" viewBox="0 0 1024 1024" version="1.1" xmlns="http://www.w3.org/2000/svg" p-id="2822" xmlns:xlink="http://www.w3.org/1999/xlink" width="200" height="200"><defs><style type="text/css"></style></defs><path d="M455.2192 302.336m-196.352 0a196.352 196.352 0 1 0 392.704 0 196.352 196.352 0 1 0-392.704 0Z" fill="#9fc6ff" p-id="2823"></path><path d="M591.104 788.4288c0-92.16 53.9648-176.9984 137.472-216.1152a30.54592 30.54592 0 0 0 17.0496-21.5552c1.9968-9.5744-0.5632-19.2512-7.0144-26.5728-20.6848-23.5008-44.3904-33.8944-70.4512-51.0464-15.6672-10.3424-36.864-8.1408-50.3808 5.12-43.6736 42.8544-101.4272 66.4576-162.6112 66.4576s-118.9376-23.6032-162.6112-66.4576c-13.5168-13.312-34.7648-15.4624-50.432-5.12-98.6624 65.024-157.5936 164.0448-157.5936 281.9584v52.3264c0 38.5024 31.3344 69.8368 69.8368 69.8368h412.3648c9.3696 0 18.0736-4.1984 23.9104-11.4688a30.75072 30.75072 0 0 0 6.0416-25.856 242.2784 242.2784 0 0 1-5.5808-51.5072z" fill="#9fc6ff" p-id="2824"></path><path d="M944.1792 751.5648c-1.6896-13.0048-13.056-22.784-26.2144-22.2208-11.4176 0.5632-22.1696-5.4272-27.904-15.36a30.6688 30.6688 0 0 1 0.4096-31.3856c6.7584-11.1104 3.8912-25.9072-6.6048-33.6896-9.7792-7.2704-20.3264-13.312-31.3856-18.0224-12.1344-5.12-26.0096-0.256-32.3072 11.2128-5.4272 9.8304-15.7184 15.9744-26.9312 15.9744s-21.504-6.144-26.9312-15.9744a25.4976 25.4976 0 0 0-32.3584-11.2128c-11.0592 4.7104-21.6064 10.752-31.3856 17.9712-10.496 7.7824-13.3632 22.5792-6.6048 33.6896a30.6688 30.6688 0 0 1 0.4096 31.3856c-5.7344 9.9328-16.3328 15.9232-27.904 15.3088-13.1584-0.4096-24.5248 9.2672-26.2144 22.2208a148.736 148.736 0 0 0-1.28 19.5584c0 5.4784 0.3072 11.1104 0.9728 16.7424 1.4848 13.2608 13.056 23.1424 26.4192 22.6304 11.6224-0.4608 22.272 5.3248 28.0064 15.3088a30.45888 30.45888 0 0 1-0.9728 32.2048 25.5488 25.5488 0 0 0 5.888 34.2528c9.7792 7.424 20.3264 13.6192 31.4368 18.432 12.4416 5.4272 26.9312 0.1536 32.9728-12.032 5.2224-10.496 15.7696-17.0496 27.4432-17.0496s22.2208 6.5536 27.4944 17.0496a25.55392 25.55392 0 0 0 32.9728 12.032c11.1104-4.8128 21.6576-11.008 31.4368-18.432 10.5984-8.0896 13.2096-23.1424 5.888-34.304-6.4-9.7792-6.8096-22.1184-0.9728-32.2048 5.7344-9.984 16.384-15.7696 28.0064-15.3088 13.1072 0.4608 24.9344-9.3696 26.4192-22.6304 0.6144-5.632 0.9216-11.264 0.9216-16.7424 0.1536-6.2976-0.256-12.8512-1.1264-19.4048z" fill="#9fc6ff" p-id="2825"></path></svg>